<svg width="135" height="40" viewBox="0 0 135 40" fill="none" xmlns="http://www.w3.org/2000/svg">
<g clip-path="url(#clip0_2_253)">
<path d="M130 0H5C2.23858 0 0 2.23858 0 5V35C0 37.7614 2.23858 40 5 40H130C132.761 40 135 37.7614 135 35V5C135 2.23858 132.761 0 130 0Z" fill="black"/>
<path d="M130 0.800014C131.114 0.8013 132.181 1.24424 132.968 2.03166C133.756 2.81908 134.199 3.88667 134.2 5.00021V35.0002C134.199 36.1137 133.756 37.1813 132.968 37.9687C132.181 38.7562 131.114 39.1991 130 39.2004H5C3.88645 39.1991 2.81888 38.7562 2.0315 37.9688C1.24412 37.1814 0.801231 36.1138 0.8 35.0002V5.00021C0.801212 3.88666 1.24409 2.81906 2.03148 2.03163C2.81886 1.24421 3.88644 0.801279 5 0.800014H130ZM130 0.000213623H5C3.67511 0.00409172 2.40559 0.532121 1.46875 1.46896C0.531908 2.40581 0.0038781 3.67532 0 5.00021L0 35.0002C0.0038781 36.3251 0.531908 37.5946 1.46875 38.5315C2.40559 39.4683 3.67511 39.9963 5 40.0002H130C131.325 39.9963 132.594 39.4683 133.531 38.5315C134.468 37.5946 134.996 36.3251 135 35.0002V5.00021C134.996 3.67532 134.468 2.40581 133.531 1.46896C132.594 0.532121 131.325 0.00409172 130 0.000213623Z" fill="#A6A6A6"/>
<path d="M47.4184 10.2433C47.4366 10.6103 47.3799 10.9771 47.2518 11.3214C47.1237 11.6657 46.9268 11.9804 46.6732 12.2462C46.389 12.541 46.0457 12.7724 45.6659 12.9254C45.2861 13.0784 44.8783 13.1494 44.4691 13.1339C44.0573 13.1376 43.649 13.0589 43.268 12.9025C42.8871 12.7461 42.5412 12.5152 42.2508 12.2232C41.9604 11.9313 41.7313 11.5842 41.5769 11.2024C41.4226 10.8206 41.3461 10.4119 41.352 10.0001C41.3462 9.58834 41.4227 9.17956 41.577 8.79778C41.7314 8.416 41.9605 8.06892 42.2509 7.77692C42.5413 7.48493 42.8871 7.25392 43.268 7.09745C43.649 6.94099 44.0573 6.86223 44.4691 6.86581C44.8925 6.86453 45.3116 6.95013 45.7006 7.11731C46.0619 7.26375 46.3834 7.49345 46.6391 7.78771L46.1117 8.31551C45.9107 8.07896 45.6581 7.89175 45.3733 7.76831C45.0885 7.64488 44.7791 7.58853 44.4691 7.60361C44.157 7.60199 43.8478 7.66338 43.56 7.78409C43.2722 7.9048 43.0118 8.08236 42.7942 8.30612C42.5767 8.52988 42.4065 8.79524 42.2939 9.08632C42.1814 9.3774 42.1287 9.6882 42.1391 10.0001C42.1317 10.4673 42.2631 10.9262 42.5168 11.3186C42.7705 11.711 43.135 12.0192 43.5641 12.2041C43.9932 12.3891 44.4676 12.4424 44.927 12.3574C45.3865 12.2724 45.8104 12.0529 46.1449 11.7267C46.4528 11.3949 46.6313 10.9636 46.6478 10.5113H44.4691V9.79061H47.3764C47.4039 9.93995 47.4179 10.0915 47.4184 10.2433Z" fill="white" stroke="white" stroke-width="0.2" stroke-miterlimit="10"/>
<path d="M52.0277 7.73739H49.2953V9.63969H51.7592V10.3605H49.2953V12.2628H52.0277V13.0001H48.5248V7.00009H52.0277V7.73739Z" fill="white" stroke="white" stroke-width="0.2" stroke-miterlimit="10"/>
<path d="M55.2787 13.0001H54.5072V7.73739H52.8314V7.00009H56.9545V7.73739H55.2787V13.0001Z" fill="white" stroke="white" stroke-width="0.2" stroke-miterlimit="10"/>
<path d="M59.9379 13.0001V7.00009H60.7084V13.0001H59.9379Z" fill="white" stroke="white" stroke-width="0.2" stroke-miterlimit="10"/>
<path d="M64.1283 13.0001H63.3568V7.73739H61.6811V7.00009H65.8041V7.73739H64.1283V13.0001Z" fill="white" stroke="white" stroke-width="0.2" stroke-miterlimit="10"/>
<path d="M73.6093 12.2247C73.0253 12.807 72.2343 13.1339 71.4096 13.1339C70.5849 13.1339 69.7939 12.807 69.2099 12.2247C68.921 11.9321 68.6939 11.5844 68.542 11.2022C68.3902 10.82 68.3168 10.4112 68.3261 10.0001C68.3168 9.589 68.3902 9.18021 68.542 8.79804C68.6939 8.41588 68.921 8.06814 69.2099 7.77551C69.4986 7.48678 69.8413 7.25781 70.2186 7.10171C70.5958 6.94562 71.0002 6.86545 71.4085 6.86582C71.8167 6.86618 72.2209 6.94706 72.5979 7.10382C72.9749 7.26059 73.3173 7.49017 73.6054 7.77941C73.8945 8.07127 74.1221 8.41823 74.2746 8.7997C74.4271 9.18117 74.5014 9.58938 74.4931 10.0001C74.5022 10.4112 74.4286 10.8199 74.2768 11.202C74.125 11.5842 73.898 11.9319 73.6093 12.2247ZM69.7792 11.7223C70.2117 12.1541 70.7979 12.3966 71.4091 12.3966C72.0203 12.3966 72.6065 12.1541 73.039 11.7223C73.2608 11.4952 73.4343 11.2255 73.5489 10.9295C73.6635 10.6335 73.717 10.3174 73.706 10.0001C73.717 9.68287 73.6635 9.3667 73.5489 9.07069C73.4343 8.77469 73.2608 8.505 73.039 8.27791C72.6065 7.84612 72.0203 7.6036 71.4091 7.6036C70.7979 7.6036 70.2117 7.84612 69.7792 8.27791C69.5577 8.50517 69.3845 8.77492 69.2701 9.0709C69.1556 9.36688 69.1022 9.68296 69.1132 10.0001C69.1022 10.3173 69.1556 10.6334 69.2701 10.9293C69.3845 11.2253 69.5577 11.4951 69.7792 11.7223Z" fill="white" stroke="white" stroke-width="0.2" stroke-miterlimit="10"/>
<path d="M75.5751 13.0001V7.00009H76.5136L79.4296 11.6676H79.4628L79.4296 10.5113V7.00009H80.2011V13.0001H79.3964L76.3456 8.10649H76.3124L76.3456 9.26279V13.0001H75.5751Z" fill="white" stroke="white" stroke-width="0.2" stroke-miterlimit="10"/>
<path d="M62.7226 21.6969C61.8005 21.7 60.9002 21.9518 60.1352 22.4202C59.3703 22.8887 58.775 23.5529 58.4246 24.329C58.0742 25.1051 57.9843 25.9583 58.1663 26.7808C58.3483 27.6033 58.7941 28.3584 59.4473 28.9505C60.1006 29.5427 60.9319 29.9455 61.8365 30.108C62.7411 30.2705 63.6783 30.1855 64.5299 29.8636C65.3814 29.5418 66.109 28.9976 66.6209 28.2997C67.1328 27.6019 67.406 26.7816 67.406 25.9426C67.415 25.3814 67.3 24.8242 67.0676 24.3043C66.8352 23.7844 66.4903 23.3124 66.0533 22.9163C65.6164 22.5201 65.0963 22.2081 64.5241 21.9986C63.9519 21.7891 63.3392 21.6865 62.7226 21.6969V21.6969ZM62.7226 28.5158C62.1547 28.5526 61.5878 28.433 61.0957 28.1726C60.6036 27.9122 60.2091 27.5229 59.9635 27.0556C59.7179 26.5883 59.6326 26.0645 59.7187 25.5524C59.8048 25.0403 60.0584 24.5637 60.4463 24.1846C60.8343 23.8055 61.3387 23.5414 61.8938 23.4268C62.449 23.3122 63.0292 23.3524 63.559 23.5421C64.0887 23.7318 64.5434 24.0622 64.8639 24.4903C65.1844 24.9185 65.3558 25.4245 65.3558 25.9426C65.373 26.2698 65.3181 26.5969 65.1944 26.9046C65.0706 27.2123 64.8804 27.4943 64.635 27.7341C64.3896 27.9739 64.094 28.1665 63.7656 28.3008C63.4371 28.435 63.0825 28.5081 62.7226 28.5158V28.5158ZM52.5057 21.6969C51.5837 21.7 50.6834 21.9517 49.9184 22.4202C49.1534 22.8886 48.5581 23.5528 48.2077 24.3289C47.8573 25.105 47.7674 25.9582 47.9494 26.7807C48.1314 27.6033 48.5772 28.3583 49.2304 28.9505C49.8836 29.5427 50.715 29.9455 51.6196 30.108C52.5242 30.2705 53.4614 30.1855 54.3129 29.8637C55.1644 29.5418 55.8921 28.9976 56.404 28.2997C56.9159 27.6019 57.1891 26.7816 57.1891 25.9426C57.1981 25.3814 57.083 24.8243 56.8507 24.3044C56.6183 23.7845 56.2734 23.3124 55.8364 22.9163C55.3995 22.5202 54.8794 22.2081 54.3073 21.9986C53.7351 21.7891 53.1224 21.6865 52.5057 21.6969V21.6969ZM52.5057 28.5158C51.9379 28.5526 51.371 28.433 50.8789 28.1726C50.3868 27.9122 49.9923 27.5229 49.7467 27.0556C49.5011 26.5883 49.4158 26.0645 49.5019 25.5524C49.588 25.0403 49.8415 24.5637 50.2295 24.1846C50.6175 23.8055 51.1219 23.5414 51.677 23.4268C52.2322 23.3122 52.8124 23.3524 53.3422 23.5421C53.8719 23.7318 54.3266 24.0622 54.6471 24.4903C54.9676 24.9185 55.139 25.4245 55.139 25.9426C55.1562 26.2698 55.1013 26.5969 54.9776 26.9046C54.8538 27.2123 54.6636 27.4943 54.4182 27.7341C54.1728 27.9739 53.8772 28.1666 53.5488 28.3008C53.2203 28.4351 52.8657 28.5081 52.5057 28.5158ZM40.3523 22.9996V24.8008H45.0888C45.0205 25.6456 44.6406 26.4446 44.0107 27.0684C43.536 27.5087 42.9652 27.8535 42.3351 28.0806C41.7049 28.3078 41.0295 28.4122 40.3523 28.3871C38.9678 28.37 37.6465 27.8576 36.6741 26.9607C35.7017 26.0638 35.1565 24.8545 35.1565 23.5946C35.1565 22.3346 35.7017 21.1253 36.6741 20.2284C37.6465 19.3315 38.9678 18.8191 40.3523 18.802C41.6821 18.7862 42.965 19.2485 43.9224 20.0886L45.3185 18.8181C44.6653 18.2296 43.8896 17.7657 43.0368 17.4537C42.184 17.1416 41.2713 16.9876 40.3523 17.0007C39.3918 16.988 38.4382 17.1492 37.5468 17.4748C36.6554 17.8005 35.8441 18.2842 35.16 18.8977C34.4758 19.5113 33.9326 20.2425 33.5618 21.0488C33.191 21.8551 33 22.7205 33 23.5946C33 24.4686 33.191 25.334 33.5618 26.1403C33.9326 26.9466 34.4758 27.6778 35.16 28.2914C35.8441 28.9049 36.6554 29.3886 37.5468 29.7143C38.4382 30.0399 39.3918 30.2011 40.3523 30.1884C41.2907 30.2238 42.2267 30.0772 43.0982 29.7583C43.9696 29.4395 44.7566 28.9556 45.4068 28.3389C46.5613 27.1921 47.1767 25.6797 47.1212 24.1253C47.1257 23.7478 47.0902 23.3708 47.015 22.9996H40.3523ZM90.0556 24.3987C89.7752 23.6296 89.2414 22.9578 88.5268 22.4744C87.8122 21.991 86.9514 21.7196 86.0614 21.6969C85.4619 21.7002 84.8694 21.8142 84.3197 22.0319C83.77 22.2495 83.2745 22.5664 82.8632 22.9632C82.4519 23.3601 82.1332 23.8287 81.9266 24.3408C81.7199 24.8529 81.6295 25.3978 81.6609 25.9426C81.6473 26.5008 81.7576 27.0557 81.9851 27.5743C82.2125 28.0928 82.5525 28.5644 82.9847 28.9607C83.4169 29.357 83.9325 29.67 84.5006 29.8809C85.0687 30.0918 85.6777 30.1964 86.2912 30.1884C87.0598 30.1922 87.8174 30.0223 88.4961 29.6939C89.1747 29.3655 89.753 28.8888 90.1792 28.3067L88.5886 27.3418C88.3504 27.7019 88.0133 27.9995 87.6105 28.2053C87.2078 28.4111 86.7531 28.5181 86.2912 28.5158C85.8159 28.5323 85.346 28.4185 84.9426 28.1891C84.5392 27.9597 84.2209 27.6253 84.0289 27.2292L90.2677 24.8812L90.0556 24.3987ZM83.6933 25.814C83.6713 25.505 83.7173 25.1951 83.8285 24.9024C83.9397 24.6098 84.114 24.3402 84.3411 24.1096C84.5682 23.879 84.8435 23.6919 85.1511 23.5593C85.4586 23.4267 85.7921 23.3512 86.132 23.3373C86.486 23.3161 86.839 23.3902 87.147 23.5504C87.455 23.7105 87.7044 23.9497 87.8641 24.2379L83.6933 25.814ZM78.621 29.931H80.671V17.4512H78.621V29.931ZM75.263 22.6457H75.1924C74.8807 22.3376 74.5003 22.0935 74.0767 21.9299C73.653 21.7662 73.1959 21.6868 72.7358 21.6969C71.5327 21.7435 70.3959 22.2111 69.5627 23.0023C68.7295 23.7934 68.2644 24.8468 68.2644 25.9426C68.2644 27.0384 68.7295 28.0918 69.5627 28.8829C70.3959 29.6741 71.5327 30.1418 72.7358 30.1884C73.1977 30.1995 73.6567 30.119 74.081 29.9524C74.5052 29.7857 74.8845 29.537 75.1924 29.2234H75.263V29.8346C75.263 31.4589 74.3088 32.3273 72.7711 32.3273C72.2586 32.3162 71.7614 32.1664 71.3429 31.8972C70.9243 31.628 70.6032 31.2514 70.4206 30.8156L68.6356 31.4911C68.972 32.2365 69.5454 32.8734 70.2822 33.3204C71.0189 33.7674 71.8856 34.004 72.7711 33.9999C75.1747 33.9999 77.2071 32.7134 77.2071 29.5772V21.9541H75.263V22.6457ZM72.9126 28.5158C72.204 28.4611 71.5438 28.1663 71.0627 27.6898C70.5815 27.2133 70.3145 26.5897 70.3145 25.9426C70.3145 25.2955 70.5815 24.6719 71.0627 24.1954C71.5438 23.7189 72.204 23.4241 72.9126 23.3694C73.2651 23.3851 73.6106 23.4652 73.9284 23.6049C74.2462 23.7447 74.5298 23.9412 74.7623 24.1829C74.9948 24.4245 75.1715 24.7062 75.2819 25.0113C75.3922 25.3164 75.4339 25.6386 75.4044 25.9586C75.432 26.2767 75.3888 26.5966 75.2774 26.8991C75.166 27.2016 74.9886 27.4806 74.756 27.7193C74.5234 27.9581 74.2402 28.1516 73.9235 28.2885C73.6067 28.4253 73.2629 28.5026 72.9126 28.5158V28.5158ZM99.6586 17.4514H94.7537V29.931H96.8004V25.2028H99.6586C100.238 25.2317 100.817 25.1529 101.361 24.9712C101.906 24.7894 102.403 24.5086 102.825 24.1459C103.246 23.7832 103.581 23.3461 103.81 22.8615C104.039 22.3768 104.158 21.8547 104.158 21.3271C104.158 20.7995 104.039 20.2774 103.81 19.7927C103.581 19.3081 103.246 18.871 102.825 18.5083C102.403 18.1456 101.906 17.8648 101.361 17.683C100.817 17.5013 100.238 17.4225 99.6586 17.4514V17.4514ZM99.7115 23.4661H96.8004V19.1882H99.7115C100.024 19.1823 100.335 19.2333 100.626 19.3381C100.917 19.443 101.182 19.5996 101.405 19.7988C101.629 19.998 101.806 20.2358 101.928 20.4982C102.049 20.7607 102.111 21.0425 102.111 21.3272C102.111 21.6118 102.049 21.8936 101.928 22.1561C101.806 22.4185 101.629 22.6563 101.405 22.8555C101.182 23.0547 100.917 23.2113 100.626 23.3162C100.335 23.421 100.024 23.472 99.7115 23.4661V23.4661ZM112.362 21.6739C111.615 21.6342 110.871 21.7939 110.222 22.1332C109.574 22.4726 109.048 22.977 108.71 23.5845L110.527 24.2749C110.707 23.9734 110.98 23.7262 111.312 23.5637C111.644 23.4011 112.021 23.3302 112.397 23.3597C112.916 23.3135 113.434 23.4566 113.838 23.7576C114.241 24.0585 114.497 24.4928 114.55 24.9652V25.0936C113.892 24.7759 113.159 24.6104 112.415 24.612C110.456 24.612 108.463 25.5914 108.463 27.4217C108.482 27.8074 108.586 28.1857 108.768 28.5342C108.951 28.8827 109.209 29.1942 109.527 29.4503C109.844 29.7063 110.215 29.9017 110.617 30.0249C111.019 30.148 111.445 30.1964 111.868 30.1671C112.383 30.1947 112.897 30.0961 113.356 29.8815C113.816 29.6669 114.203 29.3442 114.479 28.9469H114.55V29.9102H116.526V25.1258C116.526 22.9101 114.708 21.6739 112.362 21.6739V21.6739ZM112.115 28.5134C111.444 28.5134 110.509 28.2084 110.509 27.4537C110.509 26.4905 111.674 26.1211 112.679 26.1211C113.333 26.1053 113.978 26.2495 114.55 26.5386C114.474 27.0799 114.186 27.5781 113.739 27.9412C113.291 28.3042 112.714 28.5074 112.115 28.5134V28.5134ZM123.724 21.9468L121.377 27.3574H121.307L118.872 21.9468H116.667L120.319 29.5088L118.237 33.7153H120.372L126 21.9468H123.724ZM105.287 29.931H107.333V17.4514H105.287V29.931Z" fill="white"/>
<path d="M10.4353 7.53808C10.1074 7.93016 9.94182 8.43278 9.97251 8.94298V31.0591C9.94173 31.5693 10.1073 32.072 10.4353 32.464L10.5093 32.5361L22.8983 20.1472V19.8549L10.5093 7.46548L10.4353 7.53808Z" fill="url(#paint0_linear_2_253)"/>
<path d="M27.0277 24.2786L22.8983 20.1472V19.8549L27.0287 15.7245L27.1218 15.7776L32.0146 18.5577C33.4122 19.3517 33.4122 20.6509 32.0146 21.4454L27.1218 24.2255L27.0277 24.2786Z" fill="url(#paint1_linear_2_253)"/>
<path d="M27.1218 24.225L22.8983 20.0011L10.4353 32.464C10.7201 32.7152 11.0837 32.8588 11.4633 32.87C11.8428 32.8812 12.2143 32.7593 12.5134 32.5254L27.1218 24.225Z" fill="url(#paint2_linear_2_253)"/>
<path d="M27.1218 15.7771L12.5134 7.47669C12.2143 7.24278 11.8428 7.12087 11.4633 7.13209C11.0837 7.1433 10.7201 7.28693 10.4353 7.53809L22.8983 20.0011L27.1218 15.7771Z" fill="url(#paint3_linear_2_253)"/>
<path opacity="0.2" d="M27.0287 24.132L12.5134 32.3793C12.2258 32.5982 11.8748 32.7177 11.5134 32.7196C11.152 32.7215 10.7997 32.6058 10.5098 32.39L10.4353 32.4645L10.5093 32.5366L10.5098 32.5361C10.7997 32.7521 11.1519 32.8678 11.5134 32.8659C11.8749 32.864 12.2259 32.7444 12.5134 32.5254L27.1218 24.225L27.0287 24.132Z" fill="black"/>
<path opacity="0.12" d="M10.4353 32.3184C10.1074 31.9263 9.94186 31.4237 9.97251 30.9135V31.0596C9.94184 31.5698 10.1074 32.0724 10.4353 32.4645L10.5098 32.39L10.4353 32.3184Z" fill="black"/>
<path opacity="0.12" d="M32.0146 21.2988L27.0287 24.132L27.1218 24.225L32.0146 21.4449C32.3024 21.32 32.5515 21.1202 32.7358 20.8663C32.9202 20.6125 33.0331 20.3138 33.0629 20.0015C33.001 20.2843 32.8741 20.5489 32.6921 20.7741C32.5101 20.9993 32.2781 21.1789 32.0146 21.2988Z" fill="black"/>
<path opacity="0.25" d="M12.5134 7.62331L32.0146 18.7033C32.2783 18.8232 32.5103 19.0029 32.6923 19.2282C32.8743 19.4535 33.0012 19.7181 33.0629 20.0011C33.0334 19.6887 32.9205 19.3898 32.7361 19.1359C32.5517 18.8819 32.3026 18.6821 32.0146 18.5572L12.5134 7.47721C11.1158 6.68311 9.9725 7.34271 9.9725 8.94351V9.08961C9.9725 7.48891 11.1158 6.82931 12.5134 7.62331Z" fill="white"/>
</g>
<defs>
<linearGradient id="paint0_linear_2_253" x1="21.7996" y1="8.70979" x2="5.01724" y2="25.4922" gradientUnits="userSpaceOnUse">
<stop stop-color="#00A0FF"/>
<stop offset="0.00657" stop-color="#00A1FF"/>
<stop offset="0.2601" stop-color="#00BEFF"/>
<stop offset="0.5122" stop-color="#00D2FF"/>
<stop offset="0.7604" stop-color="#00DFFF"/>
<stop offset="1" stop-color="#00E3FF"/>
</linearGradient>
<linearGradient id="paint1_linear_2_253" x1="33.8343" y1="20.0015" x2="9.6374" y2="20.0015" gradientUnits="userSpaceOnUse">
<stop stop-color="#FFE000"/>
<stop offset="0.4087" stop-color="#FFBD00"/>
<stop offset="0.7754" stop-color="#FFA500"/>
<stop offset="1" stop-color="#FF9C00"/>
</linearGradient>
<linearGradient id="paint2_linear_2_253" x1="24.8269" y1="22.2962" x2="2.06857" y2="45.0545" gradientUnits="userSpaceOnUse">
<stop stop-color="#FF3A44"/>
<stop offset="1" stop-color="#C31162"/>
</linearGradient>
<linearGradient id="paint3_linear_2_253" x1="7.29723" y1="0.176268" x2="17.4598" y2="10.3388" gradientUnits="userSpaceOnUse">
<stop stop-color="#32A071"/>
<stop offset="0.0685" stop-color="#2DA771"/>
<stop offset="0.4762" stop-color="#15CF74"/>
<stop offset="0.8009" stop-color="#06E775"/>
<stop offset="1" stop-color="#00F076"/>
</linearGradient>
<clipPath id="clip0_2_253">
<rect width="135" height="40.0002" fill="white"/>
</clipPath>
</defs>
</svg>
